<svg version="1.2" xmlns="http://www.w3.org/2000/svg" viewBox="0 0 204 284" width="204" height="284"><defs><clipPath clipPathUnits="userSpaceOnUse" id="cp1"><path d="m-689-2388h1920v4558h-1920z"/></clipPath><clipPath clipPathUnits="userSpaceOnUse" id="cp2"><path d="m72.66 271.81c-11.17-11.28-11.01-29.59 0.21-40.83l56.79-56.89-117.64-117.55c-11.23-11.22-11.75-29.4-0.73-40.83 11.03-11.42 30.11-14.8 41.41-3.64l139.26 137.47q0.38 0.35 0.75 0.72c11.17 11.28 10.38 32.47-0.8 43.75l-76.67 77.42c-11.17 11.29-31.41 11.66-42.58 0.38z"/></clipPath><linearGradient id="P" gradientUnits="userSpaceOnUse"/><linearGradient id="g1" x1="155.6" y1="314" x2="70" y2="38.9" href="#P"><stop stop-color="#ff0001"/><stop offset="1" stop-color="#ffb401"/></linearGradient></defs><style>.a{fill:url(#g1)}</style><g clip-path="url(#cp1)"><g clip-path="url(#cp2)"><path class="a" d="m0.3 0.9h203.6v282.2h-203.6z"/></g></g></svg>