<svg version="1.2" xmlns="http://www.w3.org/2000/svg" viewBox="0 0 384 532" width="384" height="532"><defs><clipPath clipPathUnits="userSpaceOnUse" id="cp1"><path d="m0-548h1920v4558h-1920z"/></clipPath><clipPath clipPathUnits="userSpaceOnUse" id="cp2"><path d="m7.56 91.65c24.56 0.12 44.41 20.32 44.43 44.89l0.11 124.33 257.24-0.1c24.56-0.01 45.01 19.31 45.45 43.86 0.43 24.55-16.75 49.12-41.31 49.28l-302.67 1.96q-0.81 0.02-1.6 0.02c-24.56-0.12-46.86-24.16-46.98-48.72l-0.83-168.54c-0.12-24.55 21.6-47.11 46.16-46.98z"/></clipPath><linearGradient id="P" gradientUnits="userSpaceOnUse"/><linearGradient id="g1" x1="-129.3" y1="136.3" x2="265.2" y2="343.4" href="#P"><stop stop-color="#ff0001"/><stop offset="1" stop-color="#ffb401"/></linearGradient></defs><style>.a{fill:url(#g1)}</style><g clip-path="url(#cp1)"><g style="opacity:.7"><g clip-path="url(#cp2)"><path class="a" d="m383 308.8l-222.7 222.7-308.6-308.7 222.7-222.7z"/></g></g></g></svg>