<svg version="1.2" xmlns="http://www.w3.org/2000/svg" viewBox="0 0 234 652" width="234" height="652"><defs><clipPath clipPathUnits="userSpaceOnUse" id="cp1"><path d="m0-527h1920v6326h-1920z"/></clipPath><clipPath clipPathUnits="userSpaceOnUse" id="cp2"><path d="m-159.61 561.74c-15.65-27.59-5.84-62.93 21.57-78.89l138.79-80.77-165.48-288.08c-15.8-27.5-7.37-62.95 19.77-79.36 27.14-16.41 65.62-13.1 81.58 14.3l196.76 337.77q0.55 0.88 1.05 1.77c15.65 27.59 3.15 68.17-24.2 84.23l-187.69 110.26c-27.35 16.06-66.5 6.36-82.15-21.23z"/></clipPath><linearGradient id="P" gradientUnits="userSpaceOnUse"/><linearGradient id="g1" x1="-21.8" y1="686.1" x2="-44.1" y2="109.8" href="#P"><stop stop-color="#ff0001"/><stop offset="1" stop-color="#ffb401"/></linearGradient></defs><style>.a{fill:url(#g1)}</style><g clip-path="url(#cp1)"><g clip-path="url(#cp2)"><path class="a" d="m-158.5 0.3l391.8 105-146.2 545.9-391.9-105z"/></g></g></svg>