<svg version="1.2" xmlns="http://www.w3.org/2000/svg" viewBox="0 0 384 532" width="384" height="532"><defs><clipPath clipPathUnits="userSpaceOnUse" id="cp1"><path d="m-1536-99h1920v4558h-1920z"/></clipPath><clipPath clipPathUnits="userSpaceOnUse" id="cp2"><path d="m376.44 440.35c-24.56-0.12-44.41-20.33-44.43-44.89l-0.11-124.33-257.24 0.1c-24.56 0.01-45.01-19.31-45.45-43.86-0.43-24.55 16.75-49.12 41.31-49.28l302.67-1.96q0.81-0.03 1.6-0.02c24.56 0.12 46.86 24.16 46.98 48.71l0.83 168.55c0.12 24.55-21.6 47.11-46.16 46.98z"/></clipPath><linearGradient id="P" gradientUnits="userSpaceOnUse"/><linearGradient id="g1" x1="513.3" y1="395.7" x2="118.8" y2="188.6" href="#P"><stop stop-color="#ff0001"/><stop offset="1" stop-color="#ffb401"/></linearGradient></defs><style>.a{fill:url(#g1)}</style><g clip-path="url(#cp1)"><g style="opacity:.7"><g clip-path="url(#cp2)"><path class="a" d="m1 223.2l222.7-222.7 308.6 308.7-222.7 222.7z"/></g></g></g></svg>