<svg version="1.2" xmlns="http://www.w3.org/2000/svg" viewBox="0 0 250 358" width="250" height="358"><defs><clipPath clipPathUnits="userSpaceOnUse" id="cp1"><path d="m-1670-5016h1920v6326h-1920z"/></clipPath><clipPath clipPathUnits="userSpaceOnUse" id="cp2"><path d="m256.3 295.2c-16.53 0.2-30.13-13.16-30.43-29.7l-1.54-83.7-173.16 3.09c-16.53 0.3-30.53-12.47-31.11-28.99-0.58-16.52 10.69-33.26 27.22-33.66l203.73-4.87q0.55-0.03 1.08-0.04c16.53-0.2 31.83 15.72 32.2 32.25l2.54 113.45c0.37 16.53-13.99 31.96-30.53 32.17z"/></clipPath><linearGradient id="P" gradientUnits="userSpaceOnUse"/><linearGradient id="g1" x1="347.9" y1="263.5" x2="79.9" y2="128.7" href="#P"><stop stop-color="#ff0001"/><stop offset="1" stop-color="#ffb401"/></linearGradient></defs><style>.a{fill:url(#g1)}</style><g clip-path="url(#cp1)"><g style="opacity:.7"><g clip-path="url(#cp2)"><path class="a" d="m1 153.5l147.3-152.6 211.4 204.2-147.3 152.5z"/></g></g></g></svg>