<svg version="1.2" xmlns="http://www.w3.org/2000/svg" viewBox="0 0 205 283" width="205" height="283"><defs><clipPath clipPathUnits="userSpaceOnUse" id="cp1"><path d="m-1041-1269h1920v4558h-1920z"/></clipPath><clipPath clipPathUnits="userSpaceOnUse" id="cp2"><path d="m132.04 11.84c11.17 11.29 11.01 29.6-0.21 40.84l-56.79 56.88 117.64 117.56c11.23 11.22 11.75 29.4 0.73 40.82-11.03 11.43-30.11 14.8-41.41 3.65l-139.27-137.47q-0.38-0.36-0.74-0.72c-11.17-11.29-10.38-32.47 0.8-43.75l76.67-77.43c11.17-11.28 31.41-11.66 42.58-0.38z"/></clipPath><linearGradient id="P" gradientUnits="userSpaceOnUse"/><linearGradient id="g1" x1="49.1" y1="-30.3" x2="134.7" y2="244.7" href="#P"><stop stop-color="#ff0001"/><stop offset="1" stop-color="#ffb401"/></linearGradient></defs><style>.a{fill:url(#g1)}</style><g clip-path="url(#cp1)"><g clip-path="url(#cp2)"><path class="a" d="m204.4 282.7h-203.6v-282.1h203.6z"/></g></g></svg>