<svg version="1.2" xmlns="http://www.w3.org/2000/svg" viewBox="0 0 261 359" width="261" height="359"><defs><clipPath clipPathUnits="userSpaceOnUse" id="cp1"><path d="m0-5414h1920v6326h-1920z"/></clipPath><clipPath clipPathUnits="userSpaceOnUse" id="cp2"><path d="m7.27 62.17c16.53 0.08 29.9 13.69 29.92 30.22l0.07 83.72 173.19-0.07c16.54-0.01 30.31 13 30.6 29.53 0.29 16.53-11.28 33.07-27.81 33.17l-203.78 1.32q-0.54 0.02-1.08 0.02c-16.53-0.08-31.55-16.27-31.63-32.8l-0.56-113.47c-0.08-16.54 14.55-31.72 31.08-31.64z"/></clipPath><linearGradient id="P" gradientUnits="userSpaceOnUse"/><linearGradient id="g1" x1="-84.9" y1="92.2" x2="180.8" y2="231.7" href="#P"><stop stop-color="#ff0001"/><stop offset="1" stop-color="#ffb401"/></linearGradient></defs><style>.a{fill:url(#g1)}</style><g clip-path="url(#cp1)"><g style="opacity:.7"><g clip-path="url(#cp2)"><path class="a" d="m260.1 208.3l-150 150-207.8-207.8 150-149.9z"/></g></g></g></svg>