<svg version="1.2" xmlns="http://www.w3.org/2000/svg" viewBox="0 0 488 1114" width="488" height="1114"><defs><clipPath clipPathUnits="userSpaceOnUse" id="cp1"><path d="m-1432-558h1920v1780h-1920z"/></clipPath><clipPath clipPathUnits="userSpaceOnUse" id="cp2"><path d="m515.62 44.66c43.85 44.52 43.22 116.78-0.82 161.12l-222.94 224.49 461.82 463.86c44.09 44.28 46.12 116.04 2.84 161.11-43.28 45.08-118.2 58.39-162.55 14.38l-546.68-542.47q-1.5-1.4-2.91-2.84c-43.85-44.52-40.75-128.12 3.11-172.63l300.97-305.54c43.85-44.52 123.31-46.01 167.16-1.48z"/></clipPath><linearGradient id="P" gradientUnits="userSpaceOnUse"/><linearGradient id="g1" x1="189.9" y1="-121.7" x2="526.2" y2="963.6" href="#P"><stop stop-color="#ff0001"/><stop offset="1" stop-color="#ffb401"/></linearGradient></defs><style>.a{fill:url(#g1)}</style><g clip-path="url(#cp1)"><g clip-path="url(#cp2)"><path class="a" d="m799.8 1113.6h-799.3v-1113.5h799.3z"/></g></g></svg>